<svg xmlns="http://www.w3.org/2000/svg" width="680" height="162" viewBox="0 0 680 162" role="img" aria-label="GitHub activity log: 729 contributions in the last year">
<defs>
<filter id="glow" x="-30%" y="-30%" width="160%" height="160%" color-interpolation-filters="sRGB">
<feGaussianBlur in="SourceGraphic" stdDeviation="1.4" result="b"/>
<feMerge><feMergeNode in="b"/><feMergeNode in="SourceGraphic"/></feMerge>
</filter>
<radialGradient id="vignette" cx="50%" cy="48%" r="70%">
<stop offset="55%" stop-color="#020803" stop-opacity="0"/>
<stop offset="100%" stop-color="#020803" stop-opacity="0.85"/>
</radialGradient>
<pattern id="scan" width="3" height="3" patternUnits="userSpaceOnUse">
<rect width="3" height="2" fill="#000000" opacity="0"/>
<rect y="2" width="3" height="1" fill="#000000" opacity="0.28"/>
</pattern>
</defs>
<rect width="680" height="162" rx="4" ry="4" fill="#020803" stroke="#0d2818" stroke-width="2"/>
<rect x="4" y="4" width="672" height="154" rx="2" ry="2" fill="#041006"/>
<rect width="680" height="162" fill="url(#scan)" opacity="0.9"/>
<rect width="680" height="162" fill="url(#vignette)"/>
<text x="18" y="22" font-family="ui-monospace,SFMono-Regular,Menlo,Consolas,monospace" font-size="12" font-weight="700" letter-spacing="1.4" fill="#1a9940">ACTIVITY LOG // USER: Taf0711</text>
<text x="662" y="22" text-anchor="end" font-family="ui-monospace,SFMono-Regular,Menlo,Consolas,monospace" font-size="11" font-weight="700" letter-spacing="1.2" fill="#1a9940">ONLINE</text>
<line x1="18" y1="32" x2="662" y2="32" stroke="#0a3d18" stroke-width="1"/>
<rect x="18" y="46" width="10" height="10" rx="2" fill="#0a2818"/><rect x="30" y="46" width="10" height="10" rx="2" fill="#0a2818"/><rect x="42" y="46" width="10" height="10" rx="2" fill="#0a2818"/><rect x="54" y="46" width="10" height="10" rx="2" fill="#0a2818"/><rect x="66" y="46" width="10" height="10" rx="2" fill="#0a2818"/><rect x="78" y="46" width="10" height="10" rx="2" fill="#0a2818"/><rect x="90" y="46" width="10" height="10" rx="2" fill="#1a9940"/><rect x="102" y="46" width="10" height="10" rx="2" fill="#0a2818"/><rect x="114" y="46" width="10" height="10" rx="2" fill="#0a2818"/><rect x="126" y="46" width="10" height="10" rx="2" fill="#0a2818"/><rect x="138" y="46" width="10" height="10" rx="2" fill="#0a2818"/><rect x="150" y="46" width="10" height="10" rx="2" fill="#0a2818"/><rect x="162" y="46" width="10" height="10" rx="2" fill="#0a2818"/><rect x="174" y="46" width="10" height="10" rx="2" fill="#1a9940"/><rect x="186" y="46" width="10" height="10" rx="2" fill="#0a2818"/><rect x="198" y="46" width="10" height="10" rx="2" fill="#0a2818"/><rect x="210" y="46" width="10" height="10" rx="2" fill="#0a2818"/><rect x="222" y="46" width="10" height="10" rx="2" fill="#0a2818"/><rect x="234" y="46" width="10" height="10" rx="2" fill="#0a2818"/><rect x="246" y="46" width="10" height="10" rx="2" fill="#0a2818"/><rect x="258" y="46" width="10" height="10" rx="2" fill="#0a2818"/><rect x="270" y="46" width="10" height="10" rx="2" fill="#0a2818"/><rect x="282" y="46" width="10" height="10" rx="2" fill="#0a2818"/><rect x="294" y="46" width="10" height="10" rx="2" fill="#0a2818"/><rect x="306" y="46" width="10" height="10" rx="2" fill="#0a2818"/><rect x="318" y="46" width="10" height="10" rx="2" fill="#0a2818"/><rect x="330" y="46" width="10" height="10" rx="2" fill="#0a2818"/><rect x="342" y="46" width="10" height="10" rx="2" fill="#0a2818"/><rect x="354" y="46" width="10" height="10" rx="2" fill="#0a2818"/><rect x="366" y="46" width="10" height="10" rx="2" fill="#0a2818"/><rect x="378" y="46" width="10" height="10" rx="2" fill="#0a2818"/><rect x="390" y="46" width="10" height="10" rx="2" fill="#0a2818"/><rect x="402" y="46" width="10" height="10" rx="2" fill="#0a2818"/><rect x="414" y="46" width="10" height="10" rx="2" fill="#0a2818"/><rect x="426" y="46" width="10" height="10" rx="2" fill="#0a2818"/><rect x="438" y="46" width="10" height="10" rx="2" fill="#0a2818"/><rect x="450" y="46" width="10" height="10" rx="2" fill="#0a2818"/><rect x="462" y="46" width="10" height="10" rx="2" fill="#0a2818"/><rect x="474" y="46" width="10" height="10" rx="2" fill="#0a2818"/><rect x="486" y="46" width="10" height="10" rx="2" fill="#0a2818"/><rect x="498" y="46" width="10" height="10" rx="2" fill="#1a9940"/><rect x="510" y="46" width="10" height="10" rx="2" fill="#0a2818"/><rect x="522" y="46" width="10" height="10" rx="2" fill="#0a2818"/><rect x="534" y="46" width="10" height="10" rx="2" fill="#0a2818"/><rect x="546" y="46" width="10" height="10" rx="2" fill="#0a2818"/><rect x="558" y="46" width="10" height="10" rx="2" fill="#1a9940"/><rect x="570" y="46" width="10" height="10" rx="2" fill="#0a2818"/><rect x="582" y="46" width="10" height="10" rx="2" fill="#0a2818"/><rect x="594" y="46" width="10" height="10" rx="2" fill="#0a2818"/><rect x="606" y="46" width="10" height="10" rx="2" fill="#9fff9f" filter="url(#glow)"/><rect x="618" y="46" width="10" height="10" rx="2" fill="#0a2818"/><rect x="630" y="46" width="10" height="10" rx="2" fill="#1a9940"/><rect x="642" y="46" width="10" height="10" rx="2" fill="#9fff9f" filter="url(#glow)"/><rect x="18" y="58" width="10" height="10" rx="2" fill="#0a2818"/><rect x="30" y="58" width="10" height="10" rx="2" fill="#0a2818"/><rect x="42" y="58" width="10" height="10" rx="2" fill="#0a2818"/><rect x="54" y="58" width="10" height="10" rx="2" fill="#0a2818"/><rect x="66" y="58" width="10" height="10" rx="2" fill="#0a2818"/><rect x="78" y="58" width="10" height="10" rx="2" fill="#0a2818"/><rect x="90" y="58" width="10" height="10" rx="2" fill="#0a2818"/><rect x="102" y="58" width="10" height="10" rx="2" fill="#0a2818"/><rect x="114" y="58" width="10" height="10" rx="2" fill="#0a2818"/><rect x="126" y="58" width="10" height="10" rx="2" fill="#1a9940"/><rect x="138" y="58" width="10" height="10" rx="2" fill="#0a2818"/><rect x="150" y="58" width="10" height="10" rx="2" fill="#0a2818"/><rect x="162" y="58" width="10" height="10" rx="2" fill="#0a2818"/><rect x="174" y="58" width="10" height="10" rx="2" fill="#0a2818"/><rect x="186" y="58" width="10" height="10" rx="2" fill="#0a2818"/><rect x="198" y="58" width="10" height="10" rx="2" fill="#1a9940"/><rect x="210" y="58" width="10" height="10" rx="2" fill="#0a2818"/><rect x="222" y="58" width="10" height="10" rx="2" fill="#0a2818"/><rect x="234" y="58" width="10" height="10" rx="2" fill="#0a2818"/><rect x="246" y="58" width="10" height="10" rx="2" fill="#0a2818"/><rect x="258" y="58" width="10" height="10" rx="2" fill="#0a2818"/><rect x="270" y="58" width="10" height="10" rx="2" fill="#1a9940"/><rect x="282" y="58" width="10" height="10" rx="2" fill="#0a2818"/><rect x="294" y="58" width="10" height="10" rx="2" fill="#0a2818"/><rect x="306" y="58" width="10" height="10" rx="2" fill="#0a2818"/><rect x="318" y="58" width="10" height="10" rx="2" fill="#0a2818"/><rect x="330" y="58" width="10" height="10" rx="2" fill="#1a9940"/><rect x="342" y="58" width="10" height="10" rx="2" fill="#0a2818"/><rect x="354" y="58" width="10" height="10" rx="2" fill="#0a2818"/><rect x="366" y="58" width="10" height="10" rx="2" fill="#0a2818"/><rect x="378" y="58" width="10" height="10" rx="2" fill="#0a2818"/><rect x="390" y="58" width="10" height="10" rx="2" fill="#0a2818"/><rect x="402" y="58" width="10" height="10" rx="2" fill="#0a2818"/><rect x="414" y="58" width="10" height="10" rx="2" fill="#0a2818"/><rect x="426" y="58" width="10" height="10" rx="2" fill="#0a2818"/><rect x="438" y="58" width="10" height="10" rx="2" fill="#0a2818"/><rect x="450" y="58" width="10" height="10" rx="2" fill="#1a9940"/><rect x="462" y="58" width="10" height="10" rx="2" fill="#0a2818"/><rect x="474" y="58" width="10" height="10" rx="2" fill="#0a2818"/><rect x="486" y="58" width="10" height="10" rx="2" fill="#0a2818"/><rect x="498" y="58" width="10" height="10" rx="2" fill="#22cc55"/><rect x="510" y="58" width="10" height="10" rx="2" fill="#0a2818"/><rect x="522" y="58" width="10" height="10" rx="2" fill="#0a2818"/><rect x="534" y="58" width="10" height="10" rx="2" fill="#0a2818"/><rect x="546" y="58" width="10" height="10" rx="2" fill="#0a2818"/><rect x="558" y="58" width="10" height="10" rx="2" fill="#1a9940"/><rect x="570" y="58" width="10" height="10" rx="2" fill="#33ff66" filter="url(#glow)"/><rect x="582" y="58" width="10" height="10" rx="2" fill="#1a9940"/><rect x="594" y="58" width="10" height="10" rx="2" fill="#0a2818"/><rect x="606" y="58" width="10" height="10" rx="2" fill="#1a9940"/><rect x="618" y="58" width="10" height="10" rx="2" fill="#9fff9f" filter="url(#glow)"/><rect x="630" y="58" width="10" height="10" rx="2" fill="#33ff66" filter="url(#glow)"/><rect x="642" y="58" width="10" height="10" rx="2" fill="#9fff9f" filter="url(#glow)"/><rect x="18" y="70" width="10" height="10" rx="2" fill="#0a2818"/><rect x="30" y="70" width="10" height="10" rx="2" fill="#0a2818"/><rect x="42" y="70" width="10" height="10" rx="2" fill="#0a2818"/><rect x="54" y="70" width="10" height="10" rx="2" fill="#0a2818"/><rect x="66" y="70" width="10" height="10" rx="2" fill="#0a2818"/><rect x="78" y="70" width="10" height="10" rx="2" fill="#0a2818"/><rect x="90" y="70" width="10" height="10" rx="2" fill="#0a2818"/><rect x="102" y="70" width="10" height="10" rx="2" fill="#0a2818"/><rect x="114" y="70" width="10" height="10" rx="2" fill="#0a2818"/><rect x="126" y="70" width="10" height="10" rx="2" fill="#0a2818"/><rect x="138" y="70" width="10" height="10" rx="2" fill="#1a9940"/><rect x="150" y="70" width="10" height="10" rx="2" fill="#0a2818"/><rect x="162" y="70" width="10" height="10" rx="2" fill="#0a2818"/><rect x="174" y="70" width="10" height="10" rx="2" fill="#0a2818"/><rect x="186" y="70" width="10" height="10" rx="2" fill="#22cc55"/><rect x="198" y="70" width="10" height="10" rx="2" fill="#0a2818"/><rect x="210" y="70" width="10" height="10" rx="2" fill="#0a2818"/><rect x="222" y="70" width="10" height="10" rx="2" fill="#22cc55"/><rect x="234" y="70" width="10" height="10" rx="2" fill="#0a2818"/><rect x="246" y="70" width="10" height="10" rx="2" fill="#0a2818"/><rect x="258" y="70" width="10" height="10" rx="2" fill="#0a2818"/><rect x="270" y="70" width="10" height="10" rx="2" fill="#33ff66" filter="url(#glow)"/><rect x="282" y="70" width="10" height="10" rx="2" fill="#22cc55"/><rect x="294" y="70" width="10" height="10" rx="2" fill="#0a2818"/><rect x="306" y="70" width="10" height="10" rx="2" fill="#1a9940"/><rect x="318" y="70" width="10" height="10" rx="2" fill="#0a2818"/><rect x="330" y="70" width="10" height="10" rx="2" fill="#0a2818"/><rect x="342" y="70" width="10" height="10" rx="2" fill="#0a2818"/><rect x="354" y="70" width="10" height="10" rx="2" fill="#0a2818"/><rect x="366" y="70" width="10" height="10" rx="2" fill="#0a2818"/><rect x="378" y="70" width="10" height="10" rx="2" fill="#0a2818"/><rect x="390" y="70" width="10" height="10" rx="2" fill="#0a2818"/><rect x="402" y="70" width="10" height="10" rx="2" fill="#0a2818"/><rect x="414" y="70" width="10" height="10" rx="2" fill="#0a2818"/><rect x="426" y="70" width="10" height="10" rx="2" fill="#0a2818"/><rect x="438" y="70" width="10" height="10" rx="2" fill="#0a2818"/><rect x="450" y="70" width="10" height="10" rx="2" fill="#0a2818"/><rect x="462" y="70" width="10" height="10" rx="2" fill="#0a2818"/><rect x="474" y="70" width="10" height="10" rx="2" fill="#0a2818"/><rect x="486" y="70" width="10" height="10" rx="2" fill="#0a2818"/><rect x="498" y="70" width="10" height="10" rx="2" fill="#1a9940"/><rect x="510" y="70" width="10" height="10" rx="2" fill="#0a2818"/><rect x="522" y="70" width="10" height="10" rx="2" fill="#22cc55"/><rect x="534" y="70" width="10" height="10" rx="2" fill="#0a2818"/><rect x="546" y="70" width="10" height="10" rx="2" fill="#0a2818"/><rect x="558" y="70" width="10" height="10" rx="2" fill="#1a9940"/><rect x="570" y="70" width="10" height="10" rx="2" fill="#22cc55"/><rect x="582" y="70" width="10" height="10" rx="2" fill="#0a2818"/><rect x="594" y="70" width="10" height="10" rx="2" fill="#1a9940"/><rect x="606" y="70" width="10" height="10" rx="2" fill="#1a9940"/><rect x="618" y="70" width="10" height="10" rx="2" fill="#22cc55"/><rect x="630" y="70" width="10" height="10" rx="2" fill="#9fff9f" filter="url(#glow)"/><rect x="642" y="70" width="10" height="10" rx="2" fill="#33ff66" filter="url(#glow)"/><rect x="18" y="82" width="10" height="10" rx="2" fill="#0a2818"/><rect x="30" y="82" width="10" height="10" rx="2" fill="#0a2818"/><rect x="42" y="82" width="10" height="10" rx="2" fill="#0a2818"/><rect x="54" y="82" width="10" height="10" rx="2" fill="#0a2818"/><rect x="66" y="82" width="10" height="10" rx="2" fill="#22cc55"/><rect x="78" y="82" width="10" height="10" rx="2" fill="#0a2818"/><rect x="90" y="82" width="10" height="10" rx="2" fill="#0a2818"/><rect x="102" y="82" width="10" height="10" rx="2" fill="#1a9940"/><rect x="114" y="82" width="10" height="10" rx="2" fill="#0a2818"/><rect x="126" y="82" width="10" height="10" rx="2" fill="#0a2818"/><rect x="138" y="82" width="10" height="10" rx="2" fill="#1a9940"/><rect x="150" y="82" width="10" height="10" rx="2" fill="#1a9940"/><rect x="162" y="82" width="10" height="10" rx="2" fill="#1a9940"/><rect x="174" y="82" width="10" height="10" rx="2" fill="#0a2818"/><rect x="186" y="82" width="10" height="10" rx="2" fill="#0a2818"/><rect x="198" y="82" width="10" height="10" rx="2" fill="#0a2818"/><rect x="210" y="82" width="10" height="10" rx="2" fill="#1a9940"/><rect x="222" y="82" width="10" height="10" rx="2" fill="#0a2818"/><rect x="234" y="82" width="10" height="10" rx="2" fill="#0a2818"/><rect x="246" y="82" width="10" height="10" rx="2" fill="#0a2818"/><rect x="258" y="82" width="10" height="10" rx="2" fill="#0a2818"/><rect x="270" y="82" width="10" height="10" rx="2" fill="#1a9940"/><rect x="282" y="82" width="10" height="10" rx="2" fill="#0a2818"/><rect x="294" y="82" width="10" height="10" rx="2" fill="#0a2818"/><rect x="306" y="82" width="10" height="10" rx="2" fill="#0a2818"/><rect x="318" y="82" width="10" height="10" rx="2" fill="#0a2818"/><rect x="330" y="82" width="10" height="10" rx="2" fill="#0a2818"/><rect x="342" y="82" width="10" height="10" rx="2" fill="#0a2818"/><rect x="354" y="82" width="10" height="10" rx="2" fill="#0a2818"/><rect x="366" y="82" width="10" height="10" rx="2" fill="#0a2818"/><rect x="378" y="82" width="10" height="10" rx="2" fill="#0a2818"/><rect x="390" y="82" width="10" height="10" rx="2" fill="#0a2818"/><rect x="402" y="82" width="10" height="10" rx="2" fill="#0a2818"/><rect x="414" y="82" width="10" height="10" rx="2" fill="#0a2818"/><rect x="426" y="82" width="10" height="10" rx="2" fill="#0a2818"/><rect x="438" y="82" width="10" height="10" rx="2" fill="#0a2818"/><rect x="450" y="82" width="10" height="10" rx="2" fill="#0a2818"/><rect x="462" y="82" width="10" height="10" rx="2" fill="#0a2818"/><rect x="474" y="82" width="10" height="10" rx="2" fill="#0a2818"/><rect x="486" y="82" width="10" height="10" rx="2" fill="#0a2818"/><rect x="498" y="82" width="10" height="10" rx="2" fill="#0a2818"/><rect x="510" y="82" width="10" height="10" rx="2" fill="#9fff9f" filter="url(#glow)"/><rect x="522" y="82" width="10" height="10" rx="2" fill="#0a2818"/><rect x="534" y="82" width="10" height="10" rx="2" fill="#0a2818"/><rect x="546" y="82" width="10" height="10" rx="2" fill="#0a2818"/><rect x="558" y="82" width="10" height="10" rx="2" fill="#0a2818"/><rect x="570" y="82" width="10" height="10" rx="2" fill="#9fff9f" filter="url(#glow)"/><rect x="582" y="82" width="10" height="10" rx="2" fill="#22cc55"/><rect x="594" y="82" width="10" height="10" rx="2" fill="#1a9940"/><rect x="606" y="82" width="10" height="10" rx="2" fill="#22cc55"/><rect x="618" y="82" width="10" height="10" rx="2" fill="#1a9940"/><rect x="630" y="82" width="10" height="10" rx="2" fill="#22cc55"/><rect x="642" y="82" width="10" height="10" rx="2" fill="#0a2818"/><rect x="18" y="94" width="10" height="10" rx="2" fill="#0a2818"/><rect x="30" y="94" width="10" height="10" rx="2" fill="#0a2818"/><rect x="42" y="94" width="10" height="10" rx="2" fill="#0a2818"/><rect x="54" y="94" width="10" height="10" rx="2" fill="#1a9940"/><rect x="66" y="94" width="10" height="10" rx="2" fill="#1a9940"/><rect x="78" y="94" width="10" height="10" rx="2" fill="#1a9940"/><rect x="90" y="94" width="10" height="10" rx="2" fill="#1a9940"/><rect x="102" y="94" width="10" height="10" rx="2" fill="#0a2818"/><rect x="114" y="94" width="10" height="10" rx="2" fill="#0a2818"/><rect x="126" y="94" width="10" height="10" rx="2" fill="#0a2818"/><rect x="138" y="94" width="10" height="10" rx="2" fill="#0a2818"/><rect x="150" y="94" width="10" height="10" rx="2" fill="#9fff9f" filter="url(#glow)"/><rect x="162" y="94" width="10" height="10" rx="2" fill="#0a2818"/><rect x="174" y="94" width="10" height="10" rx="2" fill="#0a2818"/><rect x="186" y="94" width="10" height="10" rx="2" fill="#0a2818"/><rect x="198" y="94" width="10" height="10" rx="2" fill="#0a2818"/><rect x="210" y="94" width="10" height="10" rx="2" fill="#0a2818"/><rect x="222" y="94" width="10" height="10" rx="2" fill="#22cc55"/><rect x="234" y="94" width="10" height="10" rx="2" fill="#0a2818"/><rect x="246" y="94" width="10" height="10" rx="2" fill="#0a2818"/><rect x="258" y="94" width="10" height="10" rx="2" fill="#0a2818"/><rect x="270" y="94" width="10" height="10" rx="2" fill="#1a9940"/><rect x="282" y="94" width="10" height="10" rx="2" fill="#0a2818"/><rect x="294" y="94" width="10" height="10" rx="2" fill="#0a2818"/><rect x="306" y="94" width="10" height="10" rx="2" fill="#0a2818"/><rect x="318" y="94" width="10" height="10" rx="2" fill="#0a2818"/><rect x="330" y="94" width="10" height="10" rx="2" fill="#0a2818"/><rect x="342" y="94" width="10" height="10" rx="2" fill="#0a2818"/><rect x="354" y="94" width="10" height="10" rx="2" fill="#0a2818"/><rect x="366" y="94" width="10" height="10" rx="2" fill="#0a2818"/><rect x="378" y="94" width="10" height="10" rx="2" fill="#1a9940"/><rect x="390" y="94" width="10" height="10" rx="2" fill="#0a2818"/><rect x="402" y="94" width="10" height="10" rx="2" fill="#0a2818"/><rect x="414" y="94" width="10" height="10" rx="2" fill="#0a2818"/><rect x="426" y="94" width="10" height="10" rx="2" fill="#0a2818"/><rect x="438" y="94" width="10" height="10" rx="2" fill="#0a2818"/><rect x="450" y="94" width="10" height="10" rx="2" fill="#0a2818"/><rect x="462" y="94" width="10" height="10" rx="2" fill="#1a9940"/><rect x="474" y="94" width="10" height="10" rx="2" fill="#0a2818"/><rect x="486" y="94" width="10" height="10" rx="2" fill="#22cc55"/><rect x="498" y="94" width="10" height="10" rx="2" fill="#0a2818"/><rect x="510" y="94" width="10" height="10" rx="2" fill="#0a2818"/><rect x="522" y="94" width="10" height="10" rx="2" fill="#0a2818"/><rect x="534" y="94" width="10" height="10" rx="2" fill="#0a2818"/><rect x="546" y="94" width="10" height="10" rx="2" fill="#33ff66" filter="url(#glow)"/><rect x="558" y="94" width="10" height="10" rx="2" fill="#0a2818"/><rect x="570" y="94" width="10" height="10" rx="2" fill="#0a2818"/><rect x="582" y="94" width="10" height="10" rx="2" fill="#0a2818"/><rect x="594" y="94" width="10" height="10" rx="2" fill="#1a9940"/><rect x="606" y="94" width="10" height="10" rx="2" fill="#1a9940"/><rect x="618" y="94" width="10" height="10" rx="2" fill="#22cc55"/><rect x="630" y="94" width="10" height="10" rx="2" fill="#33ff66" filter="url(#glow)"/><rect x="642" y="94" width="10" height="10" rx="2" fill="#1a9940"/><rect x="18" y="106" width="10" height="10" rx="2" fill="#0a2818"/><rect x="30" y="106" width="10" height="10" rx="2" fill="#0a2818"/><rect x="42" y="106" width="10" height="10" rx="2" fill="#0a2818"/><rect x="54" y="106" width="10" height="10" rx="2" fill="#1a9940"/><rect x="66" y="106" width="10" height="10" rx="2" fill="#1a9940"/><rect x="78" y="106" width="10" height="10" rx="2" fill="#0a2818"/><rect x="90" y="106" width="10" height="10" rx="2" fill="#1a9940"/><rect x="102" y="106" width="10" height="10" rx="2" fill="#0a2818"/><rect x="114" y="106" width="10" height="10" rx="2" fill="#0a2818"/><rect x="126" y="106" width="10" height="10" rx="2" fill="#0a2818"/><rect x="138" y="106" width="10" height="10" rx="2" fill="#0a2818"/><rect x="150" y="106" width="10" height="10" rx="2" fill="#0a2818"/><rect x="162" y="106" width="10" height="10" rx="2" fill="#0a2818"/><rect x="174" y="106" width="10" height="10" rx="2" fill="#0a2818"/><rect x="186" y="106" width="10" height="10" rx="2" fill="#0a2818"/><rect x="198" y="106" width="10" height="10" rx="2" fill="#0a2818"/><rect x="210" y="106" width="10" height="10" rx="2" fill="#0a2818"/><rect x="222" y="106" width="10" height="10" rx="2" fill="#0a2818"/><rect x="234" y="106" width="10" height="10" rx="2" fill="#0a2818"/><rect x="246" y="106" width="10" height="10" rx="2" fill="#0a2818"/><rect x="258" y="106" width="10" height="10" rx="2" fill="#0a2818"/><rect x="270" y="106" width="10" height="10" rx="2" fill="#0a2818"/><rect x="282" y="106" width="10" height="10" rx="2" fill="#0a2818"/><rect x="294" y="106" width="10" height="10" rx="2" fill="#0a2818"/><rect x="306" y="106" width="10" height="10" rx="2" fill="#0a2818"/><rect x="318" y="106" width="10" height="10" rx="2" fill="#0a2818"/><rect x="330" y="106" width="10" height="10" rx="2" fill="#0a2818"/><rect x="342" y="106" width="10" height="10" rx="2" fill="#0a2818"/><rect x="354" y="106" width="10" height="10" rx="2" fill="#0a2818"/><rect x="366" y="106" width="10" height="10" rx="2" fill="#0a2818"/><rect x="378" y="106" width="10" height="10" rx="2" fill="#0a2818"/><rect x="390" y="106" width="10" height="10" rx="2" fill="#0a2818"/><rect x="402" y="106" width="10" height="10" rx="2" fill="#0a2818"/><rect x="414" y="106" width="10" height="10" rx="2" fill="#0a2818"/><rect x="426" y="106" width="10" height="10" rx="2" fill="#0a2818"/><rect x="438" y="106" width="10" height="10" rx="2" fill="#0a2818"/><rect x="450" y="106" width="10" height="10" rx="2" fill="#0a2818"/><rect x="462" y="106" width="10" height="10" rx="2" fill="#0a2818"/><rect x="474" y="106" width="10" height="10" rx="2" fill="#0a2818"/><rect x="486" y="106" width="10" height="10" rx="2" fill="#1a9940"/><rect x="498" y="106" width="10" height="10" rx="2" fill="#1a9940"/><rect x="510" y="106" width="10" height="10" rx="2" fill="#22cc55"/><rect x="522" y="106" width="10" height="10" rx="2" fill="#22cc55"/><rect x="534" y="106" width="10" height="10" rx="2" fill="#0a2818"/><rect x="546" y="106" width="10" height="10" rx="2" fill="#0a2818"/><rect x="558" y="106" width="10" height="10" rx="2" fill="#33ff66" filter="url(#glow)"/><rect x="570" y="106" width="10" height="10" rx="2" fill="#0a2818"/><rect x="582" y="106" width="10" height="10" rx="2" fill="#1a9940"/><rect x="594" y="106" width="10" height="10" rx="2" fill="#33ff66" filter="url(#glow)"/><rect x="606" y="106" width="10" height="10" rx="2" fill="#0a2818"/><rect x="618" y="106" width="10" height="10" rx="2" fill="#9fff9f" filter="url(#glow)"/><rect x="630" y="106" width="10" height="10" rx="2" fill="#22cc55"/><rect x="642" y="106" width="10" height="10" rx="2" fill="#0a2818"/><rect x="18" y="118" width="10" height="10" rx="2" fill="#0a2818"/><rect x="30" y="118" width="10" height="10" rx="2" fill="#0a2818"/><rect x="42" y="118" width="10" height="10" rx="2" fill="#0a2818"/><rect x="54" y="118" width="10" height="10" rx="2" fill="#1a9940"/><rect x="66" y="118" width="10" height="10" rx="2" fill="#0a2818"/><rect x="78" y="118" width="10" height="10" rx="2" fill="#0a2818"/><rect x="90" y="118" width="10" height="10" rx="2" fill="#0a2818"/><rect x="102" y="118" width="10" height="10" rx="2" fill="#0a2818"/><rect x="114" y="118" width="10" height="10" rx="2" fill="#0a2818"/><rect x="126" y="118" width="10" height="10" rx="2" fill="#0a2818"/><rect x="138" y="118" width="10" height="10" rx="2" fill="#0a2818"/><rect x="150" y="118" width="10" height="10" rx="2" fill="#0a2818"/><rect x="162" y="118" width="10" height="10" rx="2" fill="#1a9940"/><rect x="174" y="118" width="10" height="10" rx="2" fill="#0a2818"/><rect x="186" y="118" width="10" height="10" rx="2" fill="#0a2818"/><rect x="198" y="118" width="10" height="10" rx="2" fill="#0a2818"/><rect x="210" y="118" width="10" height="10" rx="2" fill="#0a2818"/><rect x="222" y="118" width="10" height="10" rx="2" fill="#1a9940"/><rect x="234" y="118" width="10" height="10" rx="2" fill="#1a9940"/><rect x="246" y="118" width="10" height="10" rx="2" fill="#0a2818"/><rect x="258" y="118" width="10" height="10" rx="2" fill="#0a2818"/><rect x="270" y="118" width="10" height="10" rx="2" fill="#0a2818"/><rect x="282" y="118" width="10" height="10" rx="2" fill="#0a2818"/><rect x="294" y="118" width="10" height="10" rx="2" fill="#0a2818"/><rect x="306" y="118" width="10" height="10" rx="2" fill="#0a2818"/><rect x="318" y="118" width="10" height="10" rx="2" fill="#0a2818"/><rect x="330" y="118" width="10" height="10" rx="2" fill="#0a2818"/><rect x="342" y="118" width="10" height="10" rx="2" fill="#0a2818"/><rect x="354" y="118" width="10" height="10" rx="2" fill="#0a2818"/><rect x="366" y="118" width="10" height="10" rx="2" fill="#0a2818"/><rect x="378" y="118" width="10" height="10" rx="2" fill="#0a2818"/><rect x="390" y="118" width="10" height="10" rx="2" fill="#0a2818"/><rect x="402" y="118" width="10" height="10" rx="2" fill="#0a2818"/><rect x="414" y="118" width="10" height="10" rx="2" fill="#0a2818"/><rect x="426" y="118" width="10" height="10" rx="2" fill="#0a2818"/><rect x="438" y="118" width="10" height="10" rx="2" fill="#0a2818"/><rect x="450" y="118" width="10" height="10" rx="2" fill="#0a2818"/><rect x="462" y="118" width="10" height="10" rx="2" fill="#0a2818"/><rect x="474" y="118" width="10" height="10" rx="2" fill="#0a2818"/><rect x="486" y="118" width="10" height="10" rx="2" fill="#22cc55"/><rect x="498" y="118" width="10" height="10" rx="2" fill="#0a2818"/><rect x="510" y="118" width="10" height="10" rx="2" fill="#0a2818"/><rect x="522" y="118" width="10" height="10" rx="2" fill="#0a2818"/><rect x="534" y="118" width="10" height="10" rx="2" fill="#0a2818"/><rect x="546" y="118" width="10" height="10" rx="2" fill="#0a2818"/><rect x="558" y="118" width="10" height="10" rx="2" fill="#0a2818"/><rect x="570" y="118" width="10" height="10" rx="2" fill="#0a2818"/><rect x="582" y="118" width="10" height="10" rx="2" fill="#0a2818"/><rect x="594" y="118" width="10" height="10" rx="2" fill="#9fff9f" filter="url(#glow)"/><rect x="606" y="118" width="10" height="10" rx="2" fill="#0a2818"/><rect x="618" y="118" width="10" height="10" rx="2" fill="#33ff66" filter="url(#glow)"/><rect x="630" y="118" width="10" height="10" rx="2" fill="#9fff9f" filter="url(#glow)"/>
<text x="18" y="148" font-family="ui-monospace,SFMono-Regular,Menlo,Consolas,monospace" font-size="11" font-weight="600" letter-spacing="1" fill="#1a9940">&gt; 729 OPERATIONS LOGGED [365D]</text>
</svg>